# xmcd CD database file
#
# Track frame offsets:
#	150
#	27418
#	53745
#	67998
#	87476
#	114832
#	136677
#	152794
#	178441
#	194398
#	222970
#
# Disc length: 3284 seconds
#
# Revision: 0
# Processed by: cddbd v1.5.2PL0 Copyright (c) Steve Scherf et al.
# Submitted via: CDex 1.51
#
DISCID=980cd20b
DTITLE=Goldamour - Terminal B
DYEAR=2012
DGENRE=Jazz
TTITLE0=Dans Le Blue
TTITLE1=No Regrets
TTITLE2=Spinning Letters On The Departure Board
TTITLE3=Ailleurs
TTITLE4=Equilibre
TTITLE5=On The Tip Of My Tongue
TTITLE6=Du Vide ou Rien
TTITLE7=Ma Renaissance PGM
TTITLE8=Mon Ange
TTITLE9=Aero
TTITLE10=Goodby Terminal B
EXTD=YEAR: 2012
EXTT0=
EXTT1=
EXTT2=
EXTT3=
EXTT4=
EXTT5=
EXTT6=
EXTT7=
EXTT8=
EXTT9=
EXTT10=
PLAYORDER=
